<svg width="57" height="49" viewBox="0 0 57 49" fill="none" xmlns="http://www.w3.org/2000/svg">
<path d="M33.8842 2.14625C33.4592 0.892501 32.2692 0 30.8667 0H7.4917C6.0892 0 4.92045 0.892501 4.4742 2.14625L0.0541992 14.875V31.875C0.0541992 33.0438 1.01045 34 2.1792 34H4.3042C5.47295 34 6.4292 33.0438 6.4292 31.875V29.75H31.9292V31.875C31.9292 33.0438 32.8854 34 34.0542 34H36.1792C37.3479 34 38.3042 33.0438 38.3042 31.875V14.875L33.8842 2.14625ZM7.4917 23.375C5.72795 23.375 4.3042 21.9513 4.3042 20.1875C4.3042 18.4237 5.72795 17 7.4917 17C9.25545 17 10.6792 18.4237 10.6792 20.1875C10.6792 21.9513 9.25545 23.375 7.4917 23.375ZM30.8667 23.375C29.1029 23.375 27.6792 21.9513 27.6792 20.1875C27.6792 18.4237 29.1029 17 30.8667 17C32.6304 17 34.0542 18.4237 34.0542 20.1875C34.0542 21.9513 32.6304 23.375 30.8667 23.375ZM4.3042 12.75L7.4917 3.1875H30.8667L34.0542 12.75H4.3042Z" fill="#233D7A"/>
<path d="M47.076 35.3826L46.9493 35.5579L47.1046 35.7085L55.9194 44.2542L55.9194 44.2543L55.9238 44.2583C55.9573 44.2893 55.9878 44.3192 56.0194 44.3521L56.02 44.3527C57.0295 45.3955 56.9871 47.0417 55.9232 48.0314L55.9231 48.0315C54.8561 49.0252 53.1681 48.9829 52.1551 47.9375L52.1551 47.9374L52.1497 47.9321L43.1725 39.2137L43.0368 39.0819L42.8731 39.1767C38.2338 41.8624 32.4181 41.6272 28.0202 38.5749L28.0202 38.5749C21.8592 34.2996 20.4038 25.9432 24.7626 19.9081L24.7626 19.9081C29.1236 13.869 37.6566 12.4376 43.8195 16.7148C49.9793 20.9901 51.4358 29.3475 47.076 35.3826ZM26.6809 27.6657V27.6658C26.6842 32.6682 30.82 36.7122 35.9108 36.7112C35.9108 36.7112 35.9108 36.7112 35.9108 36.7112H35.9172H35.9176C41.0104 36.7026 45.1409 32.649 45.1322 27.6455V27.6454C45.1223 22.6494 40.9887 18.6117 35.9043 18.6139C30.8125 18.616 26.6798 22.6633 26.6809 27.6657Z" fill="#233D7A" stroke="white" stroke-width="0.5"/>
</svg>
