<svg width="46" height="46" viewBox="0 0 46 46" fill="none" xmlns="http://www.w3.org/2000/svg">
<path d="M32.5636 15.3393C32.1545 14.1325 31.0091 13.2734 29.6591 13.2734H7.15909C5.80909 13.2734 4.68409 14.1325 4.25455 15.3393L0 27.5916V43.9553C0 45.0803 0.920455 46.0007 2.04545 46.0007H4.09091C5.21591 46.0007 6.13636 45.0803 6.13636 43.9553V41.9098H30.6818V43.9553C30.6818 45.0803 31.6023 46.0007 32.7273 46.0007H34.7727C35.8977 46.0007 36.8182 45.0803 36.8182 43.9553V27.5916L32.5636 15.3393ZM7.15909 35.7734C5.46136 35.7734 4.09091 34.403 4.09091 32.7053C4.09091 31.0075 5.46136 29.6371 7.15909 29.6371C8.85682 29.6371 10.2273 31.0075 10.2273 32.7053C10.2273 34.403 8.85682 35.7734 7.15909 35.7734ZM29.6591 35.7734C27.9614 35.7734 26.5909 34.403 26.5909 32.7053C26.5909 31.0075 27.9614 29.6371 29.6591 29.6371C31.3568 29.6371 32.7273 31.0075 32.7273 32.7053C32.7273 34.403 31.3568 35.7734 29.6591 35.7734ZM4.09091 25.5462L7.15909 16.3416H29.6591L32.7273 25.5462H4.09091Z" fill="#233D7A"/>
<path d="M32.7273 26.0455C39.7815 26.0455 45.5 20.3269 45.5 13.2727C45.5 6.21854 39.7815 0.5 32.7273 0.5C25.6731 0.5 19.9546 6.21854 19.9546 13.2727C19.9546 20.3269 25.6731 26.0455 32.7273 26.0455Z" fill="#233D7A" stroke="white"/>
<path d="M38.7783 12.339L36.1352 15.0577L36.7225 18.8638C36.7225 19.0191 36.6491 19.2521 36.5023 19.3298C36.4289 19.4075 36.3555 19.4075 36.2086 19.4075C36.1352 19.4075 36.0618 19.4075 35.9884 19.3298L32.758 17.5433L29.5276 19.3298C29.3807 19.4075 29.1605 19.4075 29.0136 19.2521C28.8668 19.1745 28.7934 18.9414 28.7934 18.7861L29.3807 14.98L26.7377 12.2613C26.5908 12.106 26.5908 11.9506 26.5908 11.7176C26.6642 11.5623 26.8111 11.4069 26.9579 11.4069L30.5554 10.8632L32.1706 7.36779C32.3174 7.05709 32.9048 7.05709 33.0516 7.36779L34.6668 10.8632L38.2643 11.4069C38.6279 11.4069 39.0467 12.055 38.7783 12.339Z" fill="white"/>
</svg>
