<svg width="102" height="113" viewBox="0 0 102 113" fill="none" xmlns="http://www.w3.org/2000/svg">
<path d="M72.4737 53.8095C80.3046 53.8095 87.8147 56.9276 93.3519 62.4778C98.8892 68.0279 102 75.5556 102 83.4048C102 91.2539 98.8892 98.7816 93.3519 104.332C87.8147 109.882 80.3046 113 72.4737 113C64.6428 113 57.1327 109.882 51.5954 104.332C46.0582 98.7816 42.9474 91.2539 42.9474 83.4048C42.9474 75.5556 46.0582 68.0279 51.5954 62.4778C57.1327 56.9276 64.6428 53.8095 72.4737 53.8095ZM52.3421 0C55.5456 0 58.618 1.27557 60.8832 3.5461C63.1485 5.81663 64.4211 8.89613 64.4211 12.1071V49.3649C61.623 50.027 58.918 51.0356 56.3684 52.3674V12.1071C56.3684 11.0368 55.9442 10.0103 55.1891 9.25346C54.4341 8.49662 53.41 8.07143 52.3421 8.07143H12.0789C11.0111 8.07143 9.98699 8.49662 9.23191 9.25346C8.47683 10.0103 8.05263 11.0368 8.05263 12.1071V95.5119C8.05263 97.7396 9.85642 99.5476 12.0789 99.5476L41.514 99.553C43.0492 102.505 44.996 105.223 47.2958 107.624L12.0789 107.619C8.87541 107.619 5.80308 106.343 3.53784 104.073C1.2726 101.802 0 98.7229 0 95.5119V12.1071C0 8.89613 1.2726 5.81663 3.53784 3.5461C5.80308 1.27557 8.87541 0 12.0789 0H52.3421ZM72.4737 64.5714L71.9905 64.6091C71.4542 64.7073 70.9604 64.9669 70.5749 65.3533C70.1894 65.7397 69.9304 66.2347 69.8324 66.7722L69.7895 67.2619V80.7143H56.3577L55.8745 80.7573C55.3382 80.8555 54.8444 81.1151 54.4589 81.5015C54.0734 81.888 53.8144 82.3829 53.7164 82.9205L53.6735 83.4048L53.7164 83.889C53.8144 84.4266 54.0734 84.9216 54.4589 85.308C54.8444 85.6944 55.3382 85.954 55.8745 86.0522L56.3577 86.0952H69.7895V99.5638L69.8324 100.048C69.9304 100.586 70.1894 101.081 70.5749 101.467C70.9604 101.853 71.4542 102.113 71.9905 102.211L72.4737 102.254L72.9568 102.211C73.4932 102.113 73.9869 101.853 74.3725 101.467C74.758 101.081 75.017 100.586 75.115 100.048L75.1579 99.5638V86.0952L88.6004 86.1006L89.0836 86.0576C89.6199 85.9594 90.1137 85.6998 90.4992 85.3134C90.8847 84.9269 91.1437 84.432 91.2417 83.8944L91.2846 83.4101L91.2417 82.9258C91.1434 82.3875 90.8836 81.8921 90.497 81.5056C90.1105 81.1191 89.6155 80.8599 89.0782 80.7627L88.5951 80.7197H75.1579V67.2673L75.115 66.783C75.018 66.2444 74.7594 65.7483 74.3738 65.3609C73.9882 64.9734 73.4939 64.713 72.9568 64.6145L72.4737 64.5714ZM25.4946 83.4263L37.5789 83.3994C37.5789 86.1813 37.9011 88.888 38.5131 91.4708L25.5054 91.4977C24.4375 91.4991 23.4128 91.0753 22.6568 90.3195C21.9007 89.5637 21.4751 88.5377 21.4737 87.4674C21.4723 86.397 21.8951 85.37 22.6492 84.6121C23.4032 83.8543 24.4268 83.4277 25.4946 83.4263Z" fill="#233D7A"/>
<path d="M72 98C72.85 98 73.563 97.712 74.139 97.136C74.713 96.562 75 95.85 75 95V86H84.075C84.925 86 85.625 85.712 86.175 85.136C86.725 84.562 87 83.85 87 83C87 82.15 86.712 81.437 86.136 80.861C85.562 80.287 84.85 80 84 80H75V70.925C75 70.075 74.713 69.375 74.139 68.825C73.563 68.275 72.85 68 72 68C71.15 68 70.438 68.287 69.864 68.861C69.288 69.437 69 70.15 69 71V80H59.925C59.075 80 58.375 80.287 57.825 80.861C57.275 81.437 57 82.15 57 83C57 83.85 57.287 84.562 57.861 85.136C58.437 85.712 59.15 86 60 86H69V95.075C69 95.925 69.288 96.625 69.864 97.175C70.438 97.725 71.15 98 72 98ZM72 113C67.85 113 63.95 112.212 60.3 110.636C56.65 109.062 53.475 106.925 50.775 104.225C48.075 101.525 45.938 98.35 44.364 94.7C42.788 91.05 42 87.15 42 83C42 78.85 42.788 74.95 44.364 71.3C45.938 67.65 48.075 64.475 50.775 61.775C53.475 59.075 56.65 56.937 60.3 55.361C63.95 53.787 67.85 53 72 53C76.15 53 80.05 53.787 83.7 55.361C87.35 56.937 90.525 59.075 93.225 61.775C95.925 64.475 98.062 67.65 99.636 71.3C101.212 74.95 102 78.85 102 83C102 87.15 101.212 91.05 99.636 94.7C98.062 98.35 95.925 101.525 93.225 104.225C90.525 106.925 87.35 109.062 83.7 110.636C80.05 112.212 76.15 113 72 113Z" fill="#B83339"/>
</svg>
