<svg width="60" height="60" viewBox="0 0 60 60" fill="none" xmlns="http://www.w3.org/2000/svg">
<rect width="55" height="55" rx="29.8929" fill="white"/>
<path d="M26.745 23.583L23.8251 22.8848L24.8788 13.5156H35.2635V16.4736H27.8876L27.4305 20.5742C27.676 20.4303 28.0484 20.278 28.5477 20.1172C29.0471 19.9479 29.6057 19.8633 30.2235 19.8633C31.1206 19.8633 31.9162 20.0029 32.6102 20.2822C33.3042 20.5615 33.8925 20.9678 34.3749 21.501C34.8658 22.0342 35.2382 22.6859 35.4921 23.4561C35.746 24.2262 35.8729 25.098 35.8729 26.0713C35.8729 26.8923 35.746 27.6751 35.4921 28.4199C35.2382 29.1562 34.8531 29.8164 34.3368 30.4004C33.8205 30.9759 33.1731 31.4287 32.3944 31.7588C31.6158 32.0889 30.6932 32.2539 29.6268 32.2539C28.8313 32.2539 28.0611 32.1354 27.3163 31.8984C26.58 31.6615 25.9156 31.3102 25.3231 30.8447C24.7391 30.3792 24.2694 29.8164 23.9139 29.1562C23.5669 28.4876 23.385 27.7259 23.368 26.8711H26.9989C27.0497 27.3958 27.1851 27.8486 27.4052 28.2295C27.6337 28.6019 27.9341 28.8896 28.3065 29.0928C28.6789 29.2959 29.1148 29.3975 29.6141 29.3975C30.0796 29.3975 30.4774 29.3086 30.8075 29.1309C31.1376 28.9531 31.4042 28.7077 31.6073 28.3945C31.8104 28.0729 31.9585 27.7005 32.0516 27.2773C32.1532 26.8457 32.204 26.3802 32.204 25.8809C32.204 25.3815 32.1447 24.9287 32.0262 24.5225C31.9078 24.1162 31.7258 23.765 31.4803 23.4688C31.2349 23.1725 30.9218 22.944 30.5409 22.7832C30.1685 22.6224 29.7326 22.542 29.2333 22.542C28.5562 22.542 28.0315 22.6478 27.6591 22.8594C27.2951 23.071 26.9904 23.3122 26.745 23.583Z" fill="black"/>
<path d="M21.5907 45.4004V47H16.58V45.4004H21.5907ZM17.243 37.0469V47H15.1923V37.0469H17.243ZM26.6356 45.332V42.0371C26.6356 41.8001 26.5969 41.5973 26.5194 41.4287C26.4419 41.2555 26.3212 41.1211 26.1571 41.0254C25.9976 40.9297 25.7902 40.8818 25.535 40.8818C25.3163 40.8818 25.1272 40.9206 24.9677 40.998C24.8081 41.071 24.6851 41.1781 24.5985 41.3193C24.5119 41.4561 24.4686 41.6178 24.4686 41.8047H22.4999C22.4999 41.4902 22.5728 41.1917 22.7186 40.9092C22.8645 40.6266 23.0764 40.3783 23.3544 40.1641C23.6324 39.9453 23.9628 39.7744 24.3456 39.6514C24.733 39.5283 25.1659 39.4668 25.6444 39.4668C26.2186 39.4668 26.729 39.5625 27.1757 39.7539C27.6223 39.9453 27.9732 40.2324 28.2284 40.6152C28.4882 40.998 28.618 41.4766 28.618 42.0508V45.2158C28.618 45.6214 28.6431 45.9541 28.6932 46.2139C28.7434 46.4691 28.8163 46.6924 28.912 46.8838V47H26.9227C26.827 46.7995 26.7541 46.5488 26.704 46.248C26.6584 45.9427 26.6356 45.6374 26.6356 45.332ZM26.8954 42.4951L26.9091 43.6094H25.8085C25.5487 43.6094 25.3231 43.639 25.1317 43.6982C24.9403 43.7575 24.7831 43.8418 24.66 43.9512C24.537 44.056 24.4458 44.179 24.3866 44.3203C24.3319 44.4616 24.3046 44.6165 24.3046 44.7852C24.3046 44.9538 24.3433 45.1064 24.4208 45.2432C24.4983 45.3753 24.6099 45.4801 24.7557 45.5576C24.9016 45.6305 25.0725 45.667 25.2684 45.667C25.5647 45.667 25.8221 45.6077 26.0409 45.4893C26.2596 45.3708 26.4283 45.2249 26.5468 45.0518C26.6698 44.8786 26.7336 44.7145 26.7382 44.5596L27.2577 45.3936C27.1848 45.5804 27.0845 45.7741 26.9569 45.9746C26.8339 46.1751 26.6766 46.3643 26.4852 46.542C26.2938 46.7152 26.0637 46.8587 25.7948 46.9727C25.5259 47.082 25.2069 47.1367 24.8378 47.1367C24.3684 47.1367 23.9423 47.0433 23.5594 46.8564C23.1812 46.665 22.8804 46.403 22.6571 46.0703C22.4384 45.7331 22.329 45.3503 22.329 44.9219C22.329 44.5345 22.4019 44.1904 22.5477 43.8896C22.6936 43.5889 22.9078 43.3359 23.1903 43.1309C23.4774 42.9212 23.8352 42.764 24.2635 42.6592C24.6919 42.5498 25.1887 42.4951 25.7538 42.4951H26.8954ZM32.1044 36.4932V47H30.1356V36.4932H32.1044ZM36.7665 39.6035L33.5536 43.2676L31.8309 45.0107L31.1132 43.5889L32.4803 41.8525L34.4012 39.6035H36.7665ZM34.7225 47L32.535 43.582L33.8954 42.3926L36.9921 47H34.7225ZM39.535 36.5V47H37.5663V36.5H39.535ZM39.2548 43.042H38.7147C38.7193 42.527 38.7876 42.0531 38.9198 41.6201C39.052 41.1826 39.2411 40.8044 39.4872 40.4854C39.7333 40.1618 40.0272 39.9111 40.369 39.7334C40.7154 39.5557 41.0982 39.4668 41.5175 39.4668C41.882 39.4668 42.2124 39.5192 42.5087 39.624C42.8094 39.7243 43.0669 39.8883 43.2811 40.1162C43.4999 40.3395 43.6685 40.6335 43.787 40.998C43.9055 41.3626 43.9647 41.8047 43.9647 42.3242V47H41.9823V42.3105C41.9823 41.9824 41.9344 41.7249 41.8387 41.5381C41.7476 41.3467 41.6132 41.2122 41.4354 41.1348C41.2622 41.0527 41.0481 41.0117 40.7928 41.0117C40.5103 41.0117 40.2688 41.0641 40.0682 41.1689C39.8723 41.2738 39.715 41.4196 39.5966 41.6064C39.4781 41.7887 39.3915 42.0029 39.3368 42.249C39.2821 42.4951 39.2548 42.7594 39.2548 43.042Z" fill="black"/>
</svg>
