<svg width="60" height="60" viewBox="0 0 60 60" fill="none" xmlns="http://www.w3.org/2000/svg">
<circle opacity="0.99" cx="30" cy="30" r="30" fill="white"/>
<path d="M19.0498 41.1006V42.7002H13.8545V41.1006H19.0498ZM14.4629 37.0469V47H12.4121V37.0469H14.4629ZM20.5127 37.0469V47H18.4688V37.0469H20.5127ZM21.8594 43.377V43.2334C21.8594 42.6911 21.9368 42.1921 22.0918 41.7363C22.2467 41.276 22.4723 40.8773 22.7686 40.54C23.0648 40.2028 23.4294 39.9408 23.8623 39.7539C24.2952 39.5625 24.792 39.4668 25.3525 39.4668C25.9131 39.4668 26.4121 39.5625 26.8496 39.7539C27.2871 39.9408 27.654 40.2028 27.9502 40.54C28.251 40.8773 28.4788 41.276 28.6338 41.7363C28.7887 42.1921 28.8662 42.6911 28.8662 43.2334V43.377C28.8662 43.9147 28.7887 44.4137 28.6338 44.874C28.4788 45.3298 28.251 45.7285 27.9502 46.0703C27.654 46.4076 27.2894 46.6696 26.8564 46.8564C26.4235 47.0433 25.9268 47.1367 25.3662 47.1367C24.8057 47.1367 24.3066 47.0433 23.8691 46.8564C23.4362 46.6696 23.0693 46.4076 22.7686 46.0703C22.4723 45.7285 22.2467 45.3298 22.0918 44.874C21.9368 44.4137 21.8594 43.9147 21.8594 43.377ZM23.8281 43.2334V43.377C23.8281 43.6868 23.8555 43.9762 23.9102 44.2451C23.9648 44.514 24.0514 44.751 24.1699 44.9561C24.293 45.1566 24.4525 45.3138 24.6484 45.4277C24.8444 45.5417 25.0837 45.5986 25.3662 45.5986C25.6396 45.5986 25.8743 45.5417 26.0703 45.4277C26.2663 45.3138 26.4235 45.1566 26.542 44.9561C26.6605 44.751 26.7471 44.514 26.8018 44.2451C26.861 43.9762 26.8906 43.6868 26.8906 43.377V43.2334C26.8906 42.9326 26.861 42.6501 26.8018 42.3857C26.7471 42.1169 26.6582 41.8799 26.5352 41.6748C26.4167 41.4652 26.2594 41.3011 26.0635 41.1826C25.8675 41.0641 25.6305 41.0049 25.3525 41.0049C25.0745 41.0049 24.8376 41.0641 24.6416 41.1826C24.4502 41.3011 24.293 41.4652 24.1699 41.6748C24.0514 41.8799 23.9648 42.1169 23.9102 42.3857C23.8555 42.6501 23.8281 42.9326 23.8281 43.2334ZM34.4512 45.2295V39.6035H36.4199V47H34.5674L34.4512 45.2295ZM34.6699 43.7119L35.251 43.6982C35.251 44.1904 35.194 44.6484 35.0801 45.0723C34.9661 45.4915 34.7952 45.8561 34.5674 46.166C34.3395 46.4714 34.0524 46.7106 33.7061 46.8838C33.3597 47.0524 32.9518 47.1367 32.4824 47.1367C32.1224 47.1367 31.7897 47.0866 31.4844 46.9863C31.1836 46.8815 30.9238 46.7197 30.7051 46.501C30.4909 46.2777 30.3223 45.9928 30.1992 45.6465C30.0807 45.2956 30.0215 44.874 30.0215 44.3818V39.6035H31.9902V44.3955C31.9902 44.6143 32.0153 44.7988 32.0654 44.9492C32.1201 45.0996 32.1953 45.2227 32.291 45.3184C32.3867 45.4141 32.4984 45.4824 32.626 45.5234C32.7581 45.5645 32.904 45.585 33.0635 45.585C33.4691 45.585 33.7881 45.5029 34.0205 45.3389C34.2575 45.1748 34.4238 44.9515 34.5195 44.6689C34.6198 44.3818 34.6699 44.0628 34.6699 43.7119ZM39.8926 41.2168V47H37.9238V39.6035H39.7764L39.8926 41.2168ZM42.1211 39.5557L42.0869 41.3809C41.9912 41.3672 41.875 41.3558 41.7383 41.3467C41.6061 41.333 41.4854 41.3262 41.376 41.3262C41.098 41.3262 40.8564 41.3626 40.6514 41.4355C40.4508 41.5039 40.2822 41.6064 40.1455 41.7432C40.0133 41.8799 39.9131 42.0462 39.8447 42.2422C39.7809 42.4382 39.7445 42.6615 39.7354 42.9121L39.3389 42.7891C39.3389 42.3105 39.3867 41.8708 39.4824 41.4697C39.5781 41.0641 39.7171 40.7109 39.8994 40.4102C40.0863 40.1094 40.3141 39.877 40.583 39.7129C40.8519 39.5488 41.1595 39.4668 41.5059 39.4668C41.6152 39.4668 41.7269 39.4759 41.8408 39.4941C41.9548 39.5078 42.0482 39.5283 42.1211 39.5557ZM47.0498 44.9561C47.0498 44.8148 47.0088 44.6872 46.9268 44.5732C46.8447 44.4593 46.6921 44.3545 46.4688 44.2588C46.25 44.1585 45.9333 44.0674 45.5186 43.9854C45.1449 43.9033 44.7962 43.8008 44.4727 43.6777C44.1536 43.5501 43.8757 43.3975 43.6387 43.2197C43.4062 43.042 43.224 42.8324 43.0918 42.5908C42.9596 42.3447 42.8936 42.0645 42.8936 41.75C42.8936 41.4401 42.9596 41.1484 43.0918 40.875C43.2285 40.6016 43.4222 40.36 43.6729 40.1504C43.9281 39.9362 44.238 39.7699 44.6025 39.6514C44.9717 39.5283 45.3864 39.4668 45.8467 39.4668C46.4893 39.4668 47.0407 39.5693 47.501 39.7744C47.9658 39.9795 48.3213 40.262 48.5674 40.6221C48.818 40.9775 48.9434 41.3831 48.9434 41.8389H46.9746C46.9746 41.6475 46.9336 41.4766 46.8516 41.3262C46.7741 41.1712 46.651 41.0505 46.4824 40.9639C46.3184 40.8727 46.1042 40.8271 45.8398 40.8271C45.6211 40.8271 45.432 40.8659 45.2725 40.9434C45.113 41.0163 44.9899 41.1165 44.9033 41.2441C44.8213 41.3672 44.7803 41.5039 44.7803 41.6543C44.7803 41.7682 44.8031 41.8708 44.8486 41.9619C44.8988 42.0485 44.9785 42.1283 45.0879 42.2012C45.1973 42.2741 45.3385 42.3424 45.5117 42.4062C45.6895 42.4655 45.9082 42.5202 46.168 42.5703C46.7012 42.6797 47.1774 42.8232 47.5967 43.001C48.016 43.1742 48.3486 43.4111 48.5947 43.7119C48.8408 44.0081 48.9639 44.3978 48.9639 44.8809C48.9639 45.209 48.891 45.5098 48.7451 45.7832C48.5993 46.0566 48.3896 46.2959 48.1162 46.501C47.8428 46.7015 47.5146 46.8587 47.1318 46.9727C46.7536 47.082 46.3275 47.1367 45.8535 47.1367C45.1654 47.1367 44.582 47.0137 44.1035 46.7676C43.6296 46.5215 43.2695 46.2093 43.0234 45.8311C42.7819 45.4482 42.6611 45.0563 42.6611 44.6553H44.5273C44.5365 44.9242 44.6048 45.1406 44.7324 45.3047C44.8646 45.4688 45.0309 45.5872 45.2314 45.6602C45.4365 45.7331 45.6576 45.7695 45.8945 45.7695C46.1497 45.7695 46.3617 45.7354 46.5303 45.667C46.6989 45.5941 46.8265 45.4984 46.9131 45.3799C47.0042 45.2568 47.0498 45.1156 47.0498 44.9561Z" fill="black"/>
<path d="M29.2891 26.0938V28.9629H15.9717L15.7939 26.7412L23.5 14.5156H26.4072L23.2588 19.7842L19.4248 26.0938H29.2891ZM27.1943 14.5156V33H23.5381V14.5156H27.1943ZM43.7236 27.9346C43.7236 29.0941 43.4528 30.0716 42.9111 30.8672C42.3695 31.6543 41.6247 32.251 40.6768 32.6572C39.7373 33.055 38.6709 33.2539 37.4775 33.2539C36.2842 33.2539 35.2135 33.055 34.2656 32.6572C33.3177 32.251 32.5687 31.6543 32.0186 30.8672C31.4684 30.0716 31.1934 29.0941 31.1934 27.9346C31.1934 27.1559 31.3499 26.4535 31.6631 25.8271C31.9762 25.1924 32.4121 24.6507 32.9707 24.2021C33.5378 23.7451 34.2021 23.3981 34.9639 23.1611C35.7256 22.9157 36.555 22.793 37.4521 22.793C38.654 22.793 39.7288 23.0046 40.6768 23.4277C41.6247 23.8509 42.3695 24.4476 42.9111 25.2178C43.4528 25.988 43.7236 26.8936 43.7236 27.9346ZM40.042 27.6934C40.042 27.1263 39.932 26.6396 39.7119 26.2334C39.5003 25.8187 39.1999 25.5013 38.8105 25.2812C38.4212 25.0612 37.9684 24.9512 37.4521 24.9512C36.9359 24.9512 36.4831 25.0612 36.0938 25.2812C35.7044 25.5013 35.3997 25.8187 35.1797 26.2334C34.9681 26.6396 34.8623 27.1263 34.8623 27.6934C34.8623 28.252 34.9681 28.7344 35.1797 29.1406C35.3997 29.5469 35.7044 29.86 36.0938 30.0801C36.4915 30.2917 36.9528 30.3975 37.4775 30.3975C38.0023 30.3975 38.4551 30.2917 38.8359 30.0801C39.2253 29.86 39.5215 29.5469 39.7246 29.1406C39.9362 28.7344 40.042 28.252 40.042 27.6934ZM43.3301 19.416C43.3301 20.3555 43.0804 21.1891 42.5811 21.917C42.0817 22.6364 41.3877 23.1992 40.499 23.6055C39.6188 24.0117 38.6117 24.2148 37.4775 24.2148C36.335 24.2148 35.3193 24.0117 34.4307 23.6055C33.542 23.1992 32.848 22.6364 32.3486 21.917C31.8493 21.1891 31.5996 20.3555 31.5996 19.416C31.5996 18.2988 31.8493 17.3594 32.3486 16.5977C32.8564 15.8275 33.5505 15.2435 34.4307 14.8457C35.3193 14.4479 36.3265 14.249 37.4521 14.249C38.5947 14.249 39.6061 14.4479 40.4863 14.8457C41.375 15.2435 42.069 15.8275 42.5684 16.5977C43.0762 17.3594 43.3301 18.2988 43.3301 19.416ZM39.6738 19.5811C39.6738 19.0817 39.585 18.6501 39.4072 18.2861C39.2295 17.9137 38.9756 17.626 38.6455 17.4229C38.3239 17.2197 37.9261 17.1182 37.4521 17.1182C36.9951 17.1182 36.6016 17.2155 36.2715 17.4102C35.9499 17.6048 35.7002 17.8883 35.5225 18.2607C35.3532 18.6247 35.2686 19.0648 35.2686 19.5811C35.2686 20.0804 35.3532 20.5205 35.5225 20.9014C35.7002 21.2738 35.9541 21.5658 36.2842 21.7773C36.6143 21.9889 37.012 22.0947 37.4775 22.0947C37.943 22.0947 38.3366 21.9889 38.6582 21.7773C38.9883 21.5658 39.238 21.2738 39.4072 20.9014C39.585 20.5205 39.6738 20.0804 39.6738 19.5811Z" fill="black"/>
</svg>
