<svg width="152" height="111" viewBox="0 0 152 111" fill="none" xmlns="http://www.w3.org/2000/svg">
<path d="M98.5529 6.63355L98.5553 6.64053L111.5 43.9187V93.75C111.5 96.6352 109.135 99 106.25 99H100C97.1148 99 94.75 96.6352 94.75 93.75V87.5V86.5H93.75H18.75H17.75V87.5V93.75C17.75 96.6352 15.3852 99 12.5 99H6.25C3.36478 99 1 96.6352 1 93.75V43.9187L13.9421 6.64783C13.9425 6.64664 13.943 6.64544 13.9434 6.64425C15.1224 3.33626 18.1961 1 21.875 1H90.625C94.3157 1 97.4387 3.34647 98.5529 6.63355ZM24.0625 11.5H23.3512L23.1178 12.172L16.3678 31.6094L15.9067 32.9375H17.3125H95.125H96.5308L96.0697 31.6094L89.3197 12.172L89.0863 11.5H88.375H24.0625ZM100 76H101V75V43.75V42.75H100H12.5H11.5V43.75V75V76H12.5H100Z" fill="#233D7A" stroke="#F3F3F3" stroke-width="2"/>
<path d="M36.5 59.375C36.5 64.0004 32.7504 67.75 28.125 67.75C23.4996 67.75 19.75 64.0004 19.75 59.375C19.75 54.7496 23.4996 51 28.125 51C32.7504 51 36.5 54.7496 36.5 59.375Z" fill="#233D7A" stroke="#F3F3F3" stroke-width="2"/>
<path d="M92.75 59.375C92.75 64.0004 89.0004 67.75 84.375 67.75C79.7496 67.75 76 64.0004 76 59.375C76 54.7496 79.7496 51 84.375 51C89.0004 51 92.75 54.7496 92.75 59.375Z" fill="#233D7A" stroke="#F3F3F3" stroke-width="2"/>
<rect x="84.5" y="43.5" width="65" height="65" rx="32.5" fill="#B83339" stroke="#F3F3F3" stroke-width="5"/>
<mask id="mask0_1414_25131" style="mask-type:alpha" maskUnits="userSpaceOnUse" x="99" y="62" width="32" height="30">
<path d="M129.33 74.6507C129.528 73.3234 129.462 71.9702 129.135 70.6687C128.69 68.8901 127.768 67.2665 126.47 65.9718C125.175 64.6732 123.552 63.7516 121.773 63.3057C120.471 62.9797 119.118 62.9136 117.791 63.1114M123.406 74.0232C123.516 73.2987 123.453 72.5589 123.223 71.8631C122.994 71.1674 122.604 70.5353 122.086 70.0178C121.568 69.4994 120.936 69.1099 120.24 68.8807C119.545 68.6515 118.805 68.5889 118.081 68.698" stroke="white" stroke-width="2" stroke-linecap="round" stroke-linejoin="round"/>
<path d="M107.942 65.4314C108.221 65.4315 108.494 65.5062 108.734 65.6475C108.974 65.7889 109.171 65.9918 109.306 66.2353L111.216 69.674C111.339 69.8959 111.407 70.1446 111.412 70.3983C111.418 70.6521 111.361 70.9034 111.247 71.1304L109.408 74.8087C109.408 74.8087 109.941 77.5497 112.172 79.7803C114.403 82.0109 117.135 82.5354 117.135 82.5354L120.812 80.6958C121.039 80.5822 121.291 80.5257 121.545 80.5313C121.799 80.5369 122.047 80.6043 122.269 80.7278L125.719 82.6454C125.962 82.7808 126.164 82.9786 126.305 83.2185C126.446 83.4583 126.521 83.7315 126.52 84.0097V87.9698C126.52 89.9858 124.647 91.4429 122.737 90.7974C118.813 89.4738 112.722 86.9521 108.86 83.0919C105 79.2309 102.479 73.1393 101.154 69.2151C100.51 67.3045 101.966 65.4314 103.983 65.4314H107.942Z" fill="white" stroke="white" stroke-width="2" stroke-linejoin="round"/>
</mask>
<g mask="url(#mask0_1414_25131)">
<path d="M96.7222 58.5654H134.185V96.028H96.7222V58.5654Z" fill="white"/>
</g>
</svg>
