<svg width="42" height="43" viewBox="0 0 42 43" fill="none" xmlns="http://www.w3.org/2000/svg">
<path d="M2 43C0.895431 43 1.06779e-08 42.1046 2.38498e-08 41L4.03458e-07 9.16667C4.1663e-07 8.0621 0.895431 7.16667 2 7.16667L25.3383 7.16667C25.9716 7.16667 26.5675 7.46665 26.9448 7.97537L31.8565 14.599C32.112 14.9436 32.25 15.3612 32.25 15.7903L32.25 41C32.25 42.1046 31.3546 43 30.25 43L2 43Z" fill="#233D7A"/>
<path d="M7.16675 17.9167C7.16675 16.9272 7.9689 16.125 8.95841 16.125C9.94793 16.125 10.7501 16.9272 10.7501 17.9167C10.7501 18.9062 9.94793 19.7083 8.95841 19.7083C7.9689 19.7083 7.16675 18.9062 7.16675 17.9167Z" fill="white"/>
<path d="M12.5417 17.125C12.5417 16.5727 12.9895 16.125 13.5417 16.125H24.0834C24.6357 16.125 25.0834 16.5727 25.0834 17.125V18.7083C25.0834 19.2606 24.6357 19.7083 24.0834 19.7083H13.5417C12.9895 19.7083 12.5417 19.2606 12.5417 18.7083V17.125Z" fill="white"/>
<circle cx="27.7709" cy="9.85417" r="9.85417" fill="white"/>
<path d="M27.927 17.5173L21.7406 10.7308L24.0911 8.50524L28.0974 12.8831L39.0831 2.48115L41.2632 4.88974L27.927 17.5173Z" fill="#233D7A"/>
<path d="M7.16675 25.0827C7.16675 24.0932 7.9689 23.291 8.95841 23.291C9.94793 23.291 10.7501 24.0932 10.7501 25.0827C10.7501 26.0722 9.94793 26.8743 8.95841 26.8743C7.9689 26.8743 7.16675 26.0722 7.16675 25.0827Z" fill="white"/>
<path d="M12.5417 24.291C12.5417 23.7387 12.9895 23.291 13.5417 23.291H24.0834C24.6357 23.291 25.0834 23.7387 25.0834 24.291V25.8743C25.0834 26.4266 24.6357 26.8743 24.0834 26.8743H13.5417C12.9895 26.8743 12.5417 26.4266 12.5417 25.8743V24.291Z" fill="white"/>
<path d="M7.16675 32.2507C7.16675 31.2611 7.9689 30.459 8.95841 30.459C9.94792 30.459 10.7501 31.2611 10.7501 32.2507C10.7501 33.2402 9.94792 34.0423 8.95841 34.0423C7.9689 34.0423 7.16675 33.2402 7.16675 32.2507Z" fill="white"/>
<path d="M12.5417 31.459C12.5417 30.9067 12.9895 30.459 13.5417 30.459H24.0834C24.6357 30.459 25.0834 30.9067 25.0834 31.459V33.0423C25.0834 33.5946 24.6357 34.0423 24.0834 34.0423H13.5417C12.9895 34.0423 12.5417 33.5946 12.5417 33.0423V31.459Z" fill="white"/>
</svg>
