<svg width="113" height="113" viewBox="0 0 113 113" fill="none" xmlns="http://www.w3.org/2000/svg">
<path d="M46.5294 0C39.4778 0 32.715 2.80125 27.7287 7.78751C22.7424 12.7738 19.9412 19.5366 19.9412 26.5882C19.9412 33.6399 22.7424 40.4027 27.7287 45.389C32.715 50.3752 39.4778 53.1765 46.5294 53.1765C53.5811 53.1765 60.3439 50.3752 65.3301 45.389C70.3164 40.4027 73.1176 33.6399 73.1176 26.5882C73.1176 19.5366 70.3164 12.7738 65.3301 7.78751C60.3439 2.80125 53.5811 0 46.5294 0ZM26.5882 26.5882C26.5882 21.2995 28.6892 16.2274 32.4289 12.4877C36.1686 8.748 41.2407 6.64706 46.5294 6.64706C51.8181 6.64706 56.8903 8.748 60.63 12.4877C64.3697 16.2274 66.4706 21.2995 66.4706 26.5882C66.4706 31.877 64.3697 36.9491 60.63 40.6888C56.8903 44.4285 51.8181 46.5294 46.5294 46.5294C41.2407 46.5294 36.1686 44.4285 32.4289 40.6888C28.6892 36.9491 26.5882 31.877 26.5882 26.5882ZM13.3539 59.8235C11.6033 59.8165 9.8686 60.1552 8.24916 60.8201C6.62973 61.4849 5.15748 62.463 3.91684 63.698C2.6762 64.9331 1.69158 66.401 1.01944 68.0174C0.347295 69.6338 0.000860874 71.367 0 73.1176C0 84.3578 5.537 92.8328 14.1915 98.3565C22.713 103.787 34.1991 106.353 46.5294 106.353C49.2547 106.353 51.9534 106.227 54.5724 105.974C52.9862 103.999 51.6095 101.865 50.4645 99.6062C49.1749 99.6727 47.8588 99.7059 46.5294 99.7059C34.9968 99.7059 24.8799 97.2864 17.7676 92.7464C10.7882 88.2929 6.64706 81.8253 6.64706 73.1176C6.64706 69.4418 9.62494 66.4706 13.3539 66.4706H50.511C51.7341 64.0909 53.2031 61.8642 54.8848 59.8235H13.3606H13.3539ZM83.0882 113C91.0213 113 98.6295 109.849 104.239 104.239C109.849 98.6295 113 91.0213 113 83.0882C113 75.1551 109.849 67.547 104.239 61.9374C98.6295 56.3279 91.0213 53.1765 83.0882 53.1765C75.1551 53.1765 67.547 56.3279 61.9374 61.9374C56.3279 67.547 53.1765 75.1551 53.1765 83.0882C53.1765 91.0213 56.3279 98.6295 61.9374 104.239C67.547 109.849 75.1551 113 83.0882 113ZM83.0882 66.4706C83.9697 66.4706 84.815 66.8207 85.4383 67.444C86.0616 68.0673 86.4118 68.9127 86.4118 69.7941V79.7647H96.3824C97.2638 79.7647 98.1092 80.1149 98.7324 80.7381C99.3557 81.3614 99.7059 82.2068 99.7059 83.0882C99.7059 83.9697 99.3557 84.815 98.7324 85.4383C98.1092 86.0616 97.2638 86.4118 96.3824 86.4118H86.4118V96.3824C86.4118 97.2638 86.0616 98.1092 85.4383 98.7324C84.815 99.3557 83.9697 99.7059 83.0882 99.7059C82.2068 99.7059 81.3614 99.3557 80.7381 98.7324C80.1149 98.1092 79.7647 97.2638 79.7647 96.3824V86.4118H69.7941C68.9127 86.4118 68.0673 86.0616 67.444 85.4383C66.8207 84.815 66.4706 83.9697 66.4706 83.0882C66.4706 82.2068 66.8207 81.3614 67.444 80.7381C68.0673 80.1149 68.9127 79.7647 69.7941 79.7647H79.7647V69.7941C79.7647 68.9127 80.1149 68.0673 80.7381 67.444C81.3614 66.8207 82.2068 66.4706 83.0882 66.4706Z" fill="#233D7A"/>
<path d="M83 98C83.85 98 84.563 97.712 85.139 97.136C85.713 96.562 86 95.85 86 95V86H95.075C95.925 86 96.625 85.712 97.175 85.136C97.725 84.562 98 83.85 98 83C98 82.15 97.712 81.437 97.136 80.861C96.562 80.287 95.85 80 95 80H86V70.925C86 70.075 85.713 69.375 85.139 68.825C84.563 68.275 83.85 68 83 68C82.15 68 81.438 68.287 80.864 68.861C80.288 69.437 80 70.15 80 71V80H70.925C70.075 80 69.375 80.287 68.825 80.861C68.275 81.437 68 82.15 68 83C68 83.85 68.287 84.562 68.861 85.136C69.437 85.712 70.15 86 71 86H80V95.075C80 95.925 80.288 96.625 80.864 97.175C81.438 97.725 82.15 98 83 98ZM83 113C78.85 113 74.95 112.212 71.3 110.636C67.65 109.062 64.475 106.925 61.775 104.225C59.075 101.525 56.938 98.35 55.364 94.7C53.788 91.05 53 87.15 53 83C53 78.85 53.788 74.95 55.364 71.3C56.938 67.65 59.075 64.475 61.775 61.775C64.475 59.075 67.65 56.937 71.3 55.361C74.95 53.787 78.85 53 83 53C87.15 53 91.05 53.787 94.7 55.361C98.35 56.937 101.525 59.075 104.225 61.775C106.925 64.475 109.062 67.65 110.636 71.3C112.212 74.95 113 78.85 113 83C113 87.15 112.212 91.05 110.636 94.7C109.062 98.35 106.925 101.525 104.225 104.225C101.525 106.925 98.35 109.062 94.7 110.636C91.05 112.212 87.15 113 83 113Z" fill="#B83339"/>
</svg>
