<svg width="60" height="60" viewBox="0 0 60 60" fill="none" xmlns="http://www.w3.org/2000/svg">
<rect width="60" height="60" rx="30" fill="white"/>
<path d="M15.662 29.1709H17.6171C18.2434 29.1709 18.7596 29.0651 19.1659 28.8535C19.5721 28.6335 19.8726 28.3288 20.0673 27.9395C20.2704 27.5417 20.3719 27.0804 20.3719 26.5557C20.3719 26.0817 20.2788 25.6628 20.0927 25.2988C19.9149 24.9264 19.6399 24.6387 19.2675 24.4355C18.8951 24.224 18.4253 24.1182 17.8583 24.1182C17.4097 24.1182 16.995 24.207 16.6141 24.3848C16.2333 24.5625 15.9286 24.8122 15.7001 25.1338C15.4716 25.4554 15.3573 25.8447 15.3573 26.3018H11.6884C11.6884 25.2861 11.9592 24.4017 12.5009 23.6484C13.051 22.8952 13.7873 22.307 14.7098 21.8838C15.6324 21.4606 16.648 21.249 17.7567 21.249C19.0093 21.249 20.1053 21.4521 21.0448 21.8584C21.9843 22.2562 22.7163 22.8444 23.2411 23.623C23.7658 24.4017 24.0282 25.3665 24.0282 26.5176C24.0282 27.1016 23.8928 27.6686 23.6219 28.2188C23.3511 28.7604 22.9618 29.2513 22.454 29.6914C21.9546 30.123 21.3453 30.4701 20.6259 30.7324C19.9065 30.9863 19.0982 31.1133 18.201 31.1133H15.662V29.1709ZM15.662 31.9512V30.0596H18.201C19.2082 30.0596 20.0927 30.1738 20.8544 30.4023C21.6161 30.6309 22.2551 30.9609 22.7714 31.3926C23.2876 31.8158 23.677 32.3193 23.9393 32.9033C24.2017 33.4788 24.3329 34.1178 24.3329 34.8203C24.3329 35.6836 24.1678 36.4538 23.8378 37.1309C23.5077 37.7995 23.0422 38.3665 22.4413 38.832C21.8488 39.2975 21.1548 39.653 20.3593 39.8984C19.5637 40.1354 18.6962 40.2539 17.7567 40.2539C16.9781 40.2539 16.2121 40.1481 15.4589 39.9365C14.7141 39.7165 14.037 39.3906 13.4276 38.959C12.8267 38.5189 12.3443 37.9688 11.9803 37.3086C11.6249 36.64 11.4471 35.8486 11.4471 34.9346H15.1161C15.1161 35.4085 15.2346 35.8317 15.4716 36.2041C15.7085 36.5765 16.0344 36.8685 16.4491 37.0801C16.8723 37.2917 17.342 37.3975 17.8583 37.3975C18.4423 37.3975 18.9416 37.2917 19.3563 37.0801C19.7795 36.86 20.1011 36.5553 20.3212 36.166C20.5497 35.7682 20.6639 35.307 20.6639 34.7822C20.6639 34.1051 20.5412 33.5635 20.2958 33.1572C20.0503 32.7425 19.6991 32.4378 19.2421 32.2432C18.785 32.0485 18.2434 31.9512 17.6171 31.9512H15.662ZM28.9667 21.5156H32.1913L36.9393 35.0869L41.6874 21.5156H44.912L38.2343 40H35.6444L28.9667 21.5156ZM27.2274 21.5156H30.4393L31.0233 34.7441V40H27.2274V21.5156ZM43.4393 21.5156H46.6639V40H42.8553V34.7441L43.4393 21.5156Z" fill="black"/>
</svg>
